#N canvas 1975 590 984 842 12;
#X obj 101 109 bng 15 250 50 0 empty empty empty 17 7 0 10 -262144
-1 -1;
#X obj 101 173 line~;
#X obj 101 207 sqrt~;
#X obj 101 275 -~ 0.25;
#X obj 101 307 cos~;
#X obj 101 243 *~ 20;
#X obj 109 368 dac~;
#X msg 101 140 0 \, 1 200;
#X text 109 -86 comment;
#X connect 0 0 7 0;
#X connect 1 0 2 0;
#X connect 2 0 5 0;
#X connect 3 0 4 0;
#X connect 4 0 6 0;
#X connect 4 0 6 1;
#X connect 5 0 3 0;
#X connect 7 0 1 0;
